# xmcd
#
# Track frame offsets: 
#        150
#        16986
#        37313
#        62802
#        83898
#        114122
#        129516
#        141834
#        169845
#        189306
#        210910
#        228623
#        242899
#        261000
#        291199
#        312908
#        337127
#
# Disc length: 4771 seconds
#
# Revision: 4
# Processed by: cddbd v1.5.2PL0 Copyright (c) Steve Scherf et al.
# Submitted via: ExactAudioCopyFreeDBPlugin 1.0
#
DISCID=f812a111
DTITLE=John Lee Hooker - Hooker [box set]
DYEAR=2006
DGENRE=Blues
TTITLE0=Baby Lee (ft Robert Cray)
TTITLE1=I'm in the Mood (ft Bonnie Raitt)
TTITLE2=The Healer (ft Carlos Santana)
TTITLE3=Mr. Lucky (ft Robert Cray)
TTITLE4=I Cover the Waterfront (ft Van Morrison)
TTITLE5=This is Hip (ft Ry Cooder)
TTITLE6=Bottle Up and Go (ft John Hammond)
TTITLE7=Same Old Blues Again (ft Robert Cray)
TTITLE8=Boom Boom (ft Jimmie Vaughan)
TTITLE9=Chill Out (Things Gonna Change) (ft Carlos Santana)
TTITLE10=Tupelo
TTITLE11=Kiddio (ft Charles Brown)
TTITLE12=Dimples (ft Los Lobos)
TTITLE13=Don't Look Back (f Van Morrison)
TTITLE14=Up and Down
TTITLE15=Mean Mean World (Zakiya Hooker and John Lee Hooker)
TTITLE16=Boogie Chillen' (ft Eric Clapton)
EXTD=
EXTT0=
EXTT1=
EXTT2=
EXTT3=
EXTT4=
EXTT5=
EXTT6=
EXTT7=
EXTT8=
EXTT9=
EXTT10=
EXTT11=
EXTT12=
EXTT13=
EXTT14=
EXTT15=
EXTT16=
PLAYORDER=
